<svg width="360" height="319" viewBox="0 0 360 319" fill="none" xmlns="http://www.w3.org/2000/svg">
<g clip-path="url(#clip0_3307_1309)">
<path d="M181.37 369.8C293.76 369.8 384.87 278.69 384.87 166.3C384.87 53.91 293.76 -37.2002 181.37 -37.2002C68.98 -37.2002 -22.13 53.91 -22.13 166.3C-22.13 278.69 68.98 369.8 181.37 369.8Z" fill="url(#paint0_radial_3307_1309)"/>
<path d="M32.27 12.63C34.26 6.72994 43.72 0.199942 49.62 2.18994C55.52 4.17994 58.68 10.57 56.69 16.46C54.7 22.36 48.31 25.52 42.42 23.53C36.52 21.55 30.28 18.52 32.27 12.63Z" fill="url(#paint1_linear_3307_1309)"/>
<path d="M97.5399 9.05005C98.4999 6.19975 103.08 3.03975 105.93 3.99975C108.78 4.95975 110.31 8.05005 109.35 10.9C108.39 13.75 105.3 15.28 102.45 14.32C99.5999 13.37 96.5799 11.9 97.5399 9.05005Z" fill="url(#paint2_linear_3307_1309)"/>
<path d="M14.811 67.9702C15.771 65.1202 20.351 61.9602 23.201 62.9202C26.051 63.8802 27.581 66.9702 26.621 69.8202C25.661 72.6702 22.571 74.2002 19.721 73.2402C16.871 72.2802 13.851 70.8202 14.811 67.9702Z" fill="url(#paint3_linear_3307_1309)"/>
<path d="M50.4 56.2102C44.56 57.0802 39.91 51.8501 39.04 46.0101C38.17 40.1701 42.15 38.6001 47.98 37.7301C53.81 36.8601 59.31 37.0301 60.18 42.8701C61.05 48.7101 56.23 55.3502 50.4 56.2102Z" fill="url(#paint4_linear_3307_1309)"/>
<path d="M1.96997 37.5499C-0.930026 34.5199 0.189974 29.6699 3.21997 26.7699C6.24997 23.8699 8.79999 25.5199 11.7 28.5499C14.6 31.5799 16.76 34.8399 13.73 37.7399C10.7 40.6499 4.86997 40.5799 1.96997 37.5499Z" fill="url(#paint5_linear_3307_1309)"/>
<path d="M74.16 32.17C70.64 26.17 78.98 18.82 84.98 15.31C90.98 11.79 91.22 20.78 94.73 26.78C98.24 32.78 96.2401 40.49 90.2401 44.01C84.2401 47.51 77.67 38.16 74.16 32.17Z" fill="url(#paint6_linear_3307_1309)"/>
<path d="M30.96 116.31C29.47 110.43 29.8 104.04 32.3 98C34.17 93.49 37.04 89.7 40.54 86.78C46.1 88.51 52.27 88.4 58.07 86C66.96 82.32 72.69 74.25 73.81 65.35C74.11 62.96 76.45 61.39 78.78 62.03C87.44 64.4 97.08 62.19 103.88 55.39C110.66 48.61 112.88 38.99 110.53 30.35C109.89 28.01 111.47 25.66 113.87 25.35C122.69 24.22 130.68 18.56 134.38 9.79003C135.25 9.93003 136.11 10.1 136.96 10.32C145.76 12.55 155.01 10.71 162.29 5.27953C167.15 1.65953 173.18 -0.480469 179.7 -0.480469C186.23 -0.480469 192.26 1.66953 197.12 5.28953C204.41 10.73 213.68 12.57 222.49 10.34C228.37 8.85003 234.76 9.18003 240.8 11.68C246.82 14.18 251.57 18.46 254.67 23.66C259.33 31.46 267.18 36.71 276.17 38.03C282.16 38.91 287.93 41.65 292.54 46.27C297.16 50.89 299.91 56.67 300.78 62.67C302.09 71.67 307.34 79.52 315.15 84.18C320.36 87.29 324.65 92.04 327.15 98.07C329.65 104.1 329.97 110.49 328.48 116.36C326.25 125.16 328.09 134.41 333.52 141.69C337.14 146.55 339.28 152.58 339.28 159.1C339.28 165.63 337.13 171.66 333.51 176.52C328.07 183.81 326.23 193.08 328.46 201.89C329.95 207.77 329.62 214.16 327.12 220.2C324.62 226.23 320.34 230.97 315.14 234.07C307.34 238.73 302.09 246.58 300.77 255.57C299.89 261.56 297.15 267.33 292.54 271.94C287.92 276.56 282.14 279.31 276.14 280.18C267.14 281.49 259.29 286.74 254.63 294.55C251.52 299.76 246.77 304.05 240.74 306.55C234.71 309.05 228.32 309.37 222.45 307.88C213.65 305.65 204.4 307.49 197.12 312.92C192.26 316.54 186.23 318.68 179.71 318.68C173.18 318.68 167.15 316.53 162.29 312.91C155 307.47 145.73 305.63 136.92 307.86C131.04 309.35 124.65 309.02 118.61 306.52C112.59 304.02 107.84 299.74 104.74 294.54C100.08 286.74 92.23 281.49 83.24 280.17C77.25 279.29 71.48 276.55 66.87 271.94C62.25 267.32 59.5 261.54 58.63 255.54C57.32 246.54 52.07 238.69 44.26 234.03C39.05 230.92 34.76 226.17 32.26 220.14C29.76 214.11 29.44 207.72 30.93 201.85C33.16 193.05 31.32 183.8 25.89 176.52C22.27 171.66 20.13 165.63 20.13 159.11C20.13 152.58 22.28 146.55 25.9 141.69C31.35 134.39 33.19 125.13 30.96 116.31Z" fill="url(#paint7_linear_3307_1309)"/>
<path d="M62.64 259.6C67.43 264.39 73.4099 267.23 79.6299 268.14C88.9599 269.51 97.1099 274.95 101.94 283.05C105.16 288.45 110.08 292.89 116.33 295.48C122.59 298.07 129.22 298.41 135.32 296.87C144.47 294.56 154.08 296.47 161.65 302.11C166.69 305.87 172.95 308.1 179.73 308.1C186.5 308.1 192.76 305.88 197.8 302.12C205.35 296.49 214.96 294.58 224.09 296.89C230.19 298.43 236.81 298.1 243.07 295.5C249.33 292.91 254.26 288.46 257.48 283.05C262.31 274.95 270.46 269.5 279.8 268.14C286.03 267.23 292.03 264.38 296.82 259.59C298.45 257.96 299.85 256.19 301.03 254.32C300.95 254.73 300.87 255.15 300.81 255.57C299.93 261.56 297.19 267.33 292.58 271.94C287.96 276.56 282.18 279.31 276.18 280.18C267.18 281.49 259.33 286.74 254.67 294.55C251.56 299.76 246.81 304.05 240.78 306.55C234.75 309.05 228.36 309.37 222.49 307.88C213.69 305.65 204.44 307.49 197.16 312.92C192.3 316.54 186.27 318.68 179.75 318.68C173.22 318.68 167.19 316.53 162.33 312.91C155.04 307.47 145.77 305.63 136.96 307.86C131.08 309.35 124.69 309.02 118.65 306.52C112.63 304.02 107.88 299.74 104.78 294.54C100.12 286.74 92.27 281.49 83.28 280.17C77.29 279.29 71.5199 276.55 66.9099 271.94C62.2899 267.32 59.5399 261.54 58.6699 255.54C58.6099 255.13 58.53 254.73 58.46 254.33C59.61 256.2 61.01 257.97 62.64 259.6Z" fill="url(#paint8_linear_3307_1309)"/>
<path opacity="0.15" d="M69.85 76.21C71.97 72.94 73.33 69.22 73.82 65.34C74.12 62.95 76.46 61.38 78.79 62.02C87.45 64.39 97.09 62.18 103.89 55.38C110.67 48.6 112.89 38.98 110.54 30.34C109.9 28 111.48 25.65 113.88 25.34C122.7 24.21 130.69 18.55 134.39 9.77996C135.26 9.91996 136.12 10.09 136.97 10.31C145.77 12.54 155.02 10.7 162.3 5.26976C167.16 1.64976 173.19 -0.490234 179.71 -0.490234C186.24 -0.490234 192.27 1.65976 197.13 5.27976C204.42 10.72 213.69 12.56 222.5 10.33C228.38 8.83996 234.77 9.16996 240.81 11.67C246.83 14.17 251.58 18.45 254.68 23.65C259.34 31.45 267.19 36.7 276.18 38.02C282.17 38.9 287.94 41.64 292.55 46.26C297.17 50.88 299.92 56.66 300.79 62.66C302.1 71.66 307.35 79.51 315.16 84.17C320.37 87.28 324.66 92.03 327.16 98.06C329.66 104.09 329.98 110.48 328.49 116.35C326.26 125.15 328.1 134.4 333.53 141.68C337.15 146.54 339.29 152.57 339.29 159.09C339.29 165.62 337.14 171.65 333.52 176.51C328.08 183.8 326.24 193.07 328.47 201.88C329.96 207.76 329.63 214.15 327.13 220.19C324.63 226.22 320.35 230.96 315.15 234.06C314.27 234.59 313.42 235.16 312.61 235.77C299.82 238.23 286.62 239.53 273.12 239.53C173.58 239.54 90.35 169.63 69.85 76.21Z" fill="url(#paint9_linear_3307_1309)"/>
<path d="M283.529 76.3499C283.529 84.6799 277.499 86.8099 269.179 86.8099C260.859 86.8099 254.109 80.0599 254.109 71.7399C254.109 63.4199 258.289 56.6699 266.619 56.6699C274.949 56.6699 283.529 68.0299 283.529 76.3499Z" fill="url(#paint10_linear_3307_1309)"/>
<path d="M281.79 170.83C281.79 180.6 275.71 191.22 265.95 191.22C256.19 191.22 251.12 179.35 251.12 169.58C251.12 159.81 256.18 155.85 265.95 155.85C275.72 155.85 281.79 161.06 281.79 170.83Z" fill="url(#paint11_linear_3307_1309)"/>
<path d="M191.07 41.7302C191.07 46.8602 189.88 50.5302 184.75 50.5302C179.62 50.5302 172.5 46.8602 172.5 41.7302C172.5 36.6002 173.04 33.1802 178.17 33.1802C183.3 33.1802 191.07 36.6102 191.07 41.7302Z" fill="url(#paint12_linear_3307_1309)"/>
<path d="M283.86 238.84C283.86 242.52 280.88 244.89 277.2 244.89C273.52 244.89 270.54 242.51 270.54 238.84C270.54 235.17 270.93 232.71 274.61 232.71C278.28 232.71 283.86 235.16 283.86 238.84Z" fill="url(#paint13_linear_3307_1309)"/>
<path d="M209.44 120.99C210.68 124.45 208.68 127.69 205.22 128.94C201.76 130.18 198.15 128.96 196.91 125.5C195.67 122.04 195.2 119.6 198.66 118.35C202.12 117.1 208.19 117.53 209.44 120.99Z" fill="url(#paint14_linear_3307_1309)"/>
<path d="M142.4 83.33C142.4 87.25 139.22 92.66 135.3 92.66C131.38 92.66 128.2 89.48 128.2 85.56C128.2 81.64 131.38 78.46 135.3 78.46C139.22 78.46 142.4 79.4 142.4 83.33Z" fill="url(#paint15_linear_3307_1309)"/>
<path d="M80.46 237.18C80.46 241.1 76.12 246.91 72.2 246.91C68.28 246.91 65.1 243.73 65.1 239.81C65.1 235.89 68.28 232.71 72.2 232.71C76.12 232.71 80.46 233.26 80.46 237.18Z" fill="url(#paint16_linear_3307_1309)"/>
<path d="M234.47 72.6299C234.47 75.1599 232.33 77.2099 229.8 77.2099C227.27 77.2099 225.22 75.1599 225.22 72.6299C225.22 70.0999 226.1 67.3799 228.63 67.3799C231.16 67.3799 234.47 70.0999 234.47 72.6299Z" fill="url(#paint17_linear_3307_1309)"/>
<path d="M259.41 271.25C259.41 276.87 254.86 277.14 249.24 277.14C243.62 277.14 239.07 272.59 239.07 266.97C239.07 261.35 243.62 256.8 249.24 256.8C254.86 256.8 259.41 265.63 259.41 271.25Z" fill="url(#paint18_linear_3307_1309)"/>
<path d="M141.68 150.1C142.34 157.01 141.44 164.18 138.75 171.09C129.53 194.74 100.77 221.35 77.12 212.14C53.47 202.92 43.9 161.36 53.12 137.71C55.81 130.8 60 124.92 65.16 120.27L141.68 150.1Z" fill="url(#paint19_linear_3307_1309)"/>
<path d="M141.68 150.1C142.34 157.01 141.44 164.18 138.75 171.09C129.53 194.74 102.89 206.44 79.24 197.22C55.59 188 43.89 161.36 53.11 137.71C55.8 130.8 59.99 124.92 65.15 120.27L141.68 150.1Z" fill="white"/>
<path d="M69.611 143.38C72.371 136.31 77.461 130.83 83.651 127.49L127.401 144.54C129.701 151.2 129.741 158.67 126.981 165.74C120.801 181.58 102.951 189.42 87.111 183.25C71.271 177.07 63.431 159.22 69.611 143.38Z" fill="url(#paint20_linear_3307_1309)"/>
<path d="M217.26 150.1C216.6 157.01 217.5 164.18 220.19 171.09C229.41 194.74 258.17 221.35 281.82 212.14C305.47 202.92 315.04 161.36 305.82 137.71C303.13 130.8 298.94 124.92 293.78 120.27L217.26 150.1Z" fill="url(#paint21_linear_3307_1309)"/>
<path d="M217.26 150.1C216.6 157.01 217.5 164.18 220.19 171.09C229.41 194.74 256.05 206.44 279.7 197.22C303.35 188 315.05 161.36 305.83 137.71C303.14 130.8 298.95 124.92 293.79 120.27L217.26 150.1Z" fill="white"/>
<path d="M289.33 143.38C286.57 136.31 281.48 130.83 275.29 127.49L231.54 144.54C229.24 151.2 229.2 158.67 231.96 165.74C238.14 181.58 255.99 189.42 271.83 183.25C287.67 177.07 295.51 159.22 289.33 143.38Z" fill="url(#paint22_linear_3307_1309)"/>
<path d="M138.16 153.33L63.7501 127.11C59.5001 125.61 57.2801 120.96 58.7701 116.71L62.0001 107.55C63.6301 102.93 68.9301 100.78 73.3101 102.96L144.49 138.34C148.18 140.17 149.92 144.46 148.55 148.35C147.06 152.6 142.4 154.83 138.16 153.33Z" fill="url(#paint23_linear_3307_1309)"/>
<path d="M220.67 153.33L295.08 127.11C299.33 125.61 301.55 120.96 300.06 116.71L296.83 107.55C295.2 102.93 289.9 100.78 285.52 102.96L214.34 138.34C210.65 140.17 208.91 144.46 210.28 148.35C211.77 152.6 216.42 154.83 220.67 153.33Z" fill="url(#paint24_linear_3307_1309)"/>
<path d="M224.66 245.88C224.66 245.88 213.46 247 206.75 244.76C204.15 243.9 198.06 243.19 190.98 243.06C184.41 242.93 176.97 243.26 170.71 244.39C166.22 245.2 162.31 246.41 159.74 248.12C149.66 254.84 128.39 254.84 122.8 249.24C121.17 247.61 120.58 245.4 120.57 243.11C120.56 238.95 122.34 235.14 125.22 232.35C127 230.61 129.21 229.26 131.67 228.47C135.96 227.07 140.22 226 144.43 225.19C145.71 224.94 146.97 224.72 148.23 224.53C155.07 223.46 161.72 223.09 168 223.2C169.38 223.22 170.74 223.27 172.09 223.33C179.04 223.69 185.48 224.63 191.13 225.83C192.61 226.14 194.04 226.47 195.41 226.82C204.12 229.01 210.52 231.72 213.49 233.58C213.66 233.68 213.83 233.79 213.98 233.89C222.5 239.41 224.66 245.88 224.66 245.88Z" fill="url(#paint25_linear_3307_1309)"/>
<path d="M143.101 240.88L134.921 243.49C133.021 244.11 131.011 243.42 130.211 241.89L125.221 232.35C127.001 230.61 129.211 229.26 131.671 228.47C135.961 227.07 140.221 226 144.431 225.19L146.021 236.84C146.241 238.55 145.011 240.26 143.101 240.88Z" fill="url(#paint26_linear_3307_1309)"/>
<path d="M167.98 223.19L167.51 231.92C167.41 233.66 165.88 235.1 163.88 235.35L155.35 236.37C153.36 236.61 151.52 235.55 151.03 233.9L148.21 224.53C155.05 223.45 161.7 223.08 167.98 223.19Z" fill="url(#paint27_linear_3307_1309)"/>
<path d="M191.111 225.82L189.251 232.72C188.791 234.4 186.991 235.49 184.981 235.32L176.431 234.54C174.441 234.36 172.861 232.95 172.711 231.23L172.061 223.34C179.021 223.68 185.461 224.62 191.111 225.82Z" fill="url(#paint28_linear_3307_1309)"/>
<path d="M47.82 185.11C47.82 191.69 43.72 198.85 37.15 198.85C35.39 198.85 33.86 198.28 32.56 197.31C28.99 194.68 27.16 189.1 27.16 184.28C27.16 182.01 27.56 180.2 28.37 178.82C29.88 176.18 32.84 175.04 37.15 175.04C43.72 175.03 47.82 178.54 47.82 185.11Z" fill="url(#paint29_linear_3307_1309)"/>
</g>
<defs>
<radialGradient id="paint0_radial_3307_1309" cx="0" cy="0" r="1" gradientUnits="userSpaceOnUse" gradientTransform="translate(181.374 166.303) scale(203.496 203.496)">
<stop stop-color="white"/>
<stop offset="1" stop-color="white" stop-opacity="0"/>
</radialGradient>
<linearGradient id="paint1_linear_3307_1309" x1="43.056" y1="32.287" x2="39.904" y2="70.112" gradientUnits="userSpaceOnUse">
<stop stop-color="#8F420B"/>
<stop offset="1" stop-color="#4E2202"/>
</linearGradient>
<linearGradient id="paint2_linear_3307_1309" x1="102.763" y1="18.558" x2="101.238" y2="36.852" gradientUnits="userSpaceOnUse">
<stop stop-color="#8F420B"/>
<stop offset="1" stop-color="#4E2202"/>
</linearGradient>
<linearGradient id="paint3_linear_3307_1309" x1="20.028" y1="77.4752" x2="18.503" y2="95.7702" gradientUnits="userSpaceOnUse">
<stop stop-color="#8F420B"/>
<stop offset="1" stop-color="#4E2202"/>
</linearGradient>
<linearGradient id="paint4_linear_3307_1309" x1="50.133" y1="35.9341" x2="44.459" y2="126.084" gradientUnits="userSpaceOnUse">
<stop stop-color="#FFAA6E"/>
<stop offset="1" stop-color="#8F420B"/>
</linearGradient>
<linearGradient id="paint5_linear_3307_1309" x1="7.73798" y1="37.2409" x2="7.73798" y2="55.5229" gradientUnits="userSpaceOnUse">
<stop stop-color="#FFAA6E"/>
<stop offset="1" stop-color="#8F420B"/>
</linearGradient>
<linearGradient id="paint6_linear_3307_1309" x1="84.89" y1="51.813" x2="84.89" y2="70.095" gradientUnits="userSpaceOnUse">
<stop stop-color="#FFAA6E"/>
<stop offset="1" stop-color="#8F420B"/>
</linearGradient>
<linearGradient id="paint7_linear_3307_1309" x1="196.867" y1="386.345" x2="169.788" y2="27.255" gradientUnits="userSpaceOnUse">
<stop stop-color="#8F420B"/>
<stop offset="1" stop-color="#FFAA6E"/>
</linearGradient>
<linearGradient id="paint8_linear_3307_1309" x1="180.606" y1="277.598" x2="175.373" y2="138.179" gradientUnits="userSpaceOnUse">
<stop stop-color="#8F420B"/>
<stop offset="1" stop-color="#FFAA6E"/>
</linearGradient>
<linearGradient id="paint9_linear_3307_1309" x1="218.203" y1="297.702" x2="197.195" y2="19.1189" gradientUnits="userSpaceOnUse">
<stop stop-color="#FFAA6E"/>
<stop offset="1" stop-color="#FFF2E9"/>
</linearGradient>
<linearGradient id="paint10_linear_3307_1309" x1="272.45" y1="108.014" x2="266.339" y2="50.9739" gradientUnits="userSpaceOnUse">
<stop stop-color="#4E2202"/>
<stop offset="1" stop-color="#8F420B"/>
</linearGradient>
<linearGradient id="paint11_linear_3307_1309" x1="271.279" y1="215.443" x2="264.194" y2="149.32" gradientUnits="userSpaceOnUse">
<stop stop-color="#4E2202"/>
<stop offset="1" stop-color="#8F420B"/>
</linearGradient>
<linearGradient id="paint12_linear_3307_1309" x1="184.088" y1="63.2682" x2="180.475" y2="29.5432" gradientUnits="userSpaceOnUse">
<stop stop-color="#4E2202"/>
<stop offset="1" stop-color="#8F420B"/>
</linearGradient>
<linearGradient id="paint13_linear_3307_1309" x1="278.758" y1="253.485" x2="276.262" y2="230.184" gradientUnits="userSpaceOnUse">
<stop stop-color="#4E2202"/>
<stop offset="1" stop-color="#8F420B"/>
</linearGradient>
<linearGradient id="paint14_linear_3307_1309" x1="209.616" y1="136.517" x2="199.387" y2="115.433" gradientUnits="userSpaceOnUse">
<stop stop-color="#4E2202"/>
<stop offset="1" stop-color="#8F420B"/>
</linearGradient>
<linearGradient id="paint15_linear_3307_1309" x1="137.217" y1="102.375" x2="134.379" y2="75.886" gradientUnits="userSpaceOnUse">
<stop stop-color="#4E2202"/>
<stop offset="1" stop-color="#8F420B"/>
</linearGradient>
<linearGradient id="paint16_linear_3307_1309" x1="74.71" y1="256.568" x2="71.872" y2="230.082" gradientUnits="userSpaceOnUse">
<stop stop-color="#4E2202"/>
<stop offset="1" stop-color="#8F420B"/>
</linearGradient>
<linearGradient id="paint17_linear_3307_1309" x1="231.062" y1="84.0389" x2="229.073" y2="65.4789" gradientUnits="userSpaceOnUse">
<stop stop-color="#4E2202"/>
<stop offset="1" stop-color="#8F420B"/>
</linearGradient>
<linearGradient id="paint18_linear_3307_1309" x1="251.647" y1="291.531" x2="247.533" y2="253.136" gradientUnits="userSpaceOnUse">
<stop stop-color="#4E2202"/>
<stop offset="1" stop-color="#8F420B"/>
</linearGradient>
<linearGradient id="paint19_linear_3307_1309" x1="95.767" y1="239.177" x2="95.767" y2="91.963" gradientUnits="userSpaceOnUse">
<stop stop-color="#8F420B"/>
<stop offset="1" stop-color="#FFAA6E"/>
</linearGradient>
<linearGradient id="paint20_linear_3307_1309" x1="78.257" y1="206.081" x2="63.526" y2="243.96" gradientUnits="userSpaceOnUse">
<stop stop-color="#4E2202"/>
<stop offset="1" stop-color="#8F420B"/>
</linearGradient>
<linearGradient id="paint21_linear_3307_1309" x1="263.172" y1="239.177" x2="263.172" y2="91.963" gradientUnits="userSpaceOnUse">
<stop stop-color="#8F420B"/>
<stop offset="1" stop-color="#FFAA6E"/>
</linearGradient>
<linearGradient id="paint22_linear_3307_1309" x1="265.005" y1="206.846" x2="274.018" y2="315.003" gradientUnits="userSpaceOnUse">
<stop stop-color="#4E2202"/>
<stop offset="1" stop-color="#8F420B"/>
</linearGradient>
<linearGradient id="paint23_linear_3307_1309" x1="91.3591" y1="176.324" x2="104.578" y2="112.407" gradientUnits="userSpaceOnUse">
<stop stop-color="#4E2202"/>
<stop offset="1" stop-color="#8F420B"/>
</linearGradient>
<linearGradient id="paint24_linear_3307_1309" x1="267.507" y1="176.336" x2="254.288" y2="112.419" gradientUnits="userSpaceOnUse">
<stop stop-color="#4E2202"/>
<stop offset="1" stop-color="#8F420B"/>
</linearGradient>
<linearGradient id="paint25_linear_3307_1309" x1="173.744" y1="252.498" x2="171.012" y2="234.216" gradientUnits="userSpaceOnUse">
<stop stop-color="#8F420B"/>
<stop offset="1" stop-color="#4E2202"/>
</linearGradient>
<linearGradient id="paint26_linear_3307_1309" x1="135.362" y1="230.434" x2="140.196" y2="245.144" gradientUnits="userSpaceOnUse">
<stop stop-color="#FFAA6E"/>
<stop offset="1" stop-color="#FFF2E9"/>
</linearGradient>
<linearGradient id="paint27_linear_3307_1309" x1="158.15" y1="226.181" x2="158.57" y2="245.094" gradientUnits="userSpaceOnUse">
<stop stop-color="#FFAA6E"/>
<stop offset="1" stop-color="#FFF2E9"/>
</linearGradient>
<linearGradient id="paint28_linear_3307_1309" x1="182.511" y1="236.982" x2="182.94" y2="242.771" gradientUnits="userSpaceOnUse">
<stop stop-color="#FFAA6E"/>
<stop offset="1" stop-color="#FFF2E9"/>
</linearGradient>
<linearGradient id="paint29_linear_3307_1309" x1="40.738" y1="215.165" x2="35.967" y2="170.631" gradientUnits="userSpaceOnUse">
<stop stop-color="#4E2202"/>
<stop offset="1" stop-color="#8F420B"/>
</linearGradient>
<clipPath id="clip0_3307_1309">
<rect width="360" height="319" fill="white"/>
</clipPath>
</defs>
</svg>

