<svg width="360" height="320" viewBox="0 0 360 320" fill="none" xmlns="http://www.w3.org/2000/svg">
<g clip-path="url(#clip0_3307_1247)">
<path d="M178.63 377.65C291.02 377.65 382.13 286.54 382.13 174.15C382.13 61.76 291.02 -29.3501 178.63 -29.3501C66.24 -29.3501 -24.8701 61.76 -24.8701 174.15C-24.8701 286.54 66.24 377.65 178.63 377.65Z" fill="url(#paint0_radial_3307_1247)"/>
<path d="M24.3099 177.35C29.7599 184.67 31.6099 193.96 29.3699 202.81C27.8799 208.71 28.2099 215.14 30.7099 221.19C33.2199 227.26 37.5299 232.03 42.7699 235.15C50.2499 239.62 55.3999 247.02 56.9999 255.55C57.0299 255.74 57.0699 255.94 57.0999 256.14C57.1399 256.34 57.1699 256.55 57.1999 256.76C58.0799 262.79 60.8399 268.6 65.4799 273.24C70.0999 277.87 75.8999 280.63 81.9299 281.51C90.9599 282.84 98.8599 288.1 103.54 295.95C106.65 301.17 111.42 305.48 117.48 307.98C123.54 310.49 129.96 310.82 135.86 309.32C144.73 307.08 154.03 308.93 161.35 314.39C166.24 318.04 172.3 320.19 178.86 320.19C185.42 320.19 191.48 318.04 196.36 314.4C203.67 308.95 212.97 307.1 221.82 309.34C227.72 310.83 234.13 310.5 240.2 308C246.26 305.49 251.04 301.18 254.15 295.94C258.83 288.09 266.72 282.82 275.77 281.51C281.79 280.63 287.6 277.87 292.25 273.23C296.88 268.6 299.64 262.8 300.52 256.78C300.58 256.35 300.65 255.94 300.73 255.53C301.96 249.03 305.25 243.17 310.08 238.8C311.57 237.43 313.19 236.23 314.95 235.17C320.18 232.06 324.48 227.29 326.98 221.23C329.5 215.17 329.82 208.75 328.33 202.84C327.95 201.35 327.69 199.85 327.55 198.34C326.91 191.89 328.37 185.43 331.74 179.85C332.24 179 332.8 178.16 333.41 177.35C337.05 172.47 339.21 166.41 339.21 159.85C339.21 153.29 337.05 147.23 333.41 142.35C327.97 135.03 326.11 125.74 328.35 116.89C329.85 110.99 329.53 104.56 327.02 98.51C324.5 92.44 320.19 87.67 314.96 84.55C307.11 79.88 301.84 71.99 300.52 62.94C299.65 56.91 296.88 51.11 292.25 46.46C292.23 46.45 292.22 46.44 292.21 46.43C292.2 46.41 292.19 46.4 292.18 46.39C287.53 41.76 281.72 39 275.69 38.12C272.34 37.64 269.14 36.61 266.21 35.1C264.42 34.17 262.72 33.06 261.15 31.8C258.42 29.57 256.06 26.87 254.21 23.76C253.5 22.58 252.72 21.45 251.86 20.39C248.88 16.7 244.95 13.67 240.27 11.72C240.24 11.71 240.21 11.71 240.18 11.7C240.16 11.69 240.14 11.67 240.1 11.66C234.04 9.15997 227.63 8.83996 221.72 10.34C216.58 11.64 211.29 11.55 206.32 10.19C202.78 9.18996 199.41 7.56996 196.39 5.30976C191.5 1.66976 185.44 -0.490234 178.88 -0.490234H178.77C172.21 -0.490234 166.15 1.66976 161.27 5.31976C158.42 7.44996 155.27 9.00996 151.97 10.02C146.82 11.56 141.29 11.72 135.94 10.36C135.08 10.15 134.22 9.97996 133.34 9.82996C133.33 9.84996 133.32 9.88997 133.31 9.90997C128.12 9.05997 122.62 9.59996 117.39 11.77C111.34 14.29 106.58 18.59 103.46 23.82C98.7799 31.67 90.8999 36.94 81.8599 38.27C75.8499 39.15 70.0499 41.92 65.4099 46.55C60.7799 51.2 58.0199 57.01 57.1499 63.04C55.8399 72.07 50.5699 79.98 42.7299 84.66C41.4599 85.41 40.2599 86.27 39.1099 87.21C39.0899 87.2 39.0499 87.19 39.0299 87.19C35.4999 90.12 32.6299 93.93 30.7499 98.46C30.7399 98.48 30.7299 98.52 30.7199 98.54C30.7099 98.57 30.6999 98.6 30.6899 98.62C29.2599 102.1 28.5299 105.7 28.4599 109.24C28.3999 111.87 28.7199 114.48 29.3599 117C30.6699 122.15 30.5799 127.46 29.2099 132.43C28.2099 135.96 26.5899 139.33 24.3299 142.35C20.6899 147.23 18.5399 153.29 18.5399 159.86C18.5199 166.42 20.6699 172.47 24.3099 177.35Z" fill="url(#paint1_linear_3307_1247)"/>
<path opacity="0.15" d="M28.4399 109.25C37.0299 119.93 45.6199 129.79 54.2199 138.91C59.0699 144.04 63.8999 148.92 68.7299 153.58C72.4999 157.22 76.2799 160.72 80.0399 164.08C88.5399 171.67 96.9899 178.58 105.4 184.85C105.74 185.11 106.08 185.36 106.42 185.61C111.01 189.01 115.57 192.22 120.11 195.24C121.16 195.95 122.2 196.63 123.24 197.31C183.37 236.39 239.29 244.3 280.73 242.17C285.7 241.91 290.46 241.51 294.99 241.01C300.34 240.42 305.38 239.67 310.07 238.83C311.56 237.46 313.18 236.26 314.94 235.2C320.17 232.09 324.47 227.32 326.97 221.26C329.49 215.2 329.81 208.78 328.32 202.87C327.94 201.38 327.68 199.88 327.54 198.37C331.11 195.74 332.94 190.16 332.94 185.34C332.94 183.07 332.54 181.26 331.73 179.88C332.23 179.03 332.79 178.19 333.4 177.38C337.04 172.5 339.2 166.44 339.2 159.88C339.2 153.32 337.04 147.26 333.4 142.38C327.96 135.06 326.1 125.77 328.34 116.92C329.84 111.02 329.52 104.59 327.01 98.5399C324.49 92.4699 320.18 87.7 314.95 84.58C307.1 79.91 301.83 72.02 300.51 62.97C299.64 56.94 296.87 51.14 292.24 46.49C292.22 46.48 292.21 46.47 292.2 46.46C292.19 46.44 292.18 46.43 292.17 46.42C287.52 41.79 281.71 39.0299 275.68 38.1499C272.33 37.6699 269.13 36.64 266.2 35.13C264.41 34.2 262.71 33.09 261.14 31.83C260.26 26.78 256.54 21.55 251.85 20.42C248.87 16.73 244.94 13.7 240.26 11.75C240.23 11.74 240.2 11.74 240.17 11.73C240.15 11.72 240.13 11.7 240.09 11.69C234.03 9.18996 227.62 8.86996 221.71 10.37C216.57 11.67 211.28 11.58 206.31 10.22C202.77 9.21996 199.4 7.59995 196.38 5.33945C191.49 1.69945 185.43 -0.460449 178.87 -0.460449H178.76C172.2 -0.460449 166.14 1.69946 161.26 5.34946C158.41 7.47996 155.26 9.03996 151.96 10.05C146.81 11.59 141.28 11.75 135.93 10.39C135.07 10.18 134.21 10.01 133.33 9.85995C133.32 9.87995 133.31 9.91996 133.3 9.93996C128.11 9.08996 122.61 9.62996 117.38 11.8C111.33 14.32 106.57 18.62 103.45 23.85C98.7699 31.7 90.8899 36.97 81.8499 38.3C75.8399 39.18 70.0399 41.95 65.3999 46.58C60.7699 51.23 58.0099 57.04 57.1399 63.07C55.8299 72.1 50.5599 80.01 42.7199 84.69C41.4499 85.44 40.2499 86.3 39.0999 87.24C39.0799 87.23 39.0399 87.22 39.0199 87.22C35.4899 90.15 32.6199 93.96 30.7399 98.49C30.7299 98.51 30.7199 98.55 30.7099 98.57C30.6999 98.6 30.6899 98.6299 30.6799 98.6499C29.2399 102.11 28.5099 105.7 28.4399 109.25Z" fill="url(#paint2_linear_3307_1247)"/>
<path d="M61.22 260.83C66.03 265.64 72.04 268.5 78.29 269.42C87.66 270.8 95.85 276.26 100.71 284.4C103.95 289.82 108.89 294.28 115.17 296.89C121.46 299.5 128.12 299.84 134.25 298.29C143.44 295.96 153.1 297.89 160.7 303.55C165.77 307.33 172.05 309.57 178.86 309.57C185.67 309.57 191.95 307.34 197.01 303.56C204.6 297.91 214.25 295.99 223.42 298.31C229.55 299.86 236.2 299.52 242.49 296.92C248.78 294.32 253.73 289.84 256.97 284.41C261.82 276.27 270.01 270.8 279.39 269.43C285.65 268.52 291.67 265.66 296.49 260.84C298.13 259.2 299.53 257.42 300.72 255.54C300.64 255.96 300.56 256.37 300.5 256.79C299.62 262.81 296.86 268.61 292.23 273.24C287.59 277.88 281.78 280.64 275.75 281.52C266.71 282.84 258.82 288.11 254.14 295.96C251.02 301.19 246.25 305.5 240.18 308.01C234.12 310.52 227.7 310.84 221.8 309.35C212.96 307.11 203.66 308.96 196.35 314.41C191.47 318.05 185.41 320.2 178.85 320.2C172.29 320.2 166.23 318.04 161.34 314.4C154.02 308.94 144.71 307.09 135.85 309.33C129.94 310.82 123.52 310.5 117.46 307.98C111.41 305.47 106.64 301.17 103.52 295.95C98.84 288.11 90.95 282.84 81.92 281.51C75.9 280.63 70.1 277.87 65.47 273.24C60.83 268.6 58.07 262.79 57.19 256.76C57.13 256.35 57.05 255.95 56.98 255.54C58.18 257.42 59.58 259.2 61.22 260.83Z" fill="url(#paint3_linear_3307_1247)"/>
<path d="M78.3201 171.88C78.3201 181.65 84.4001 192.27 94.1601 192.27C103.93 192.27 108.99 180.4 108.99 170.63C108.99 160.86 103.93 156.9 94.1601 156.9C84.4001 156.9 78.3201 162.11 78.3201 171.88Z" fill="url(#paint4_linear_3307_1247)"/>
<path d="M295.51 209.52C295.51 216.1 299.61 223.26 306.18 223.26C307.94 223.26 309.47 222.69 310.77 221.72C314.34 219.09 316.17 213.51 316.17 208.69C316.17 206.42 315.77 204.61 314.96 203.23C313.45 200.59 310.49 199.45 306.18 199.45C299.61 199.43 295.51 202.94 295.51 209.52Z" fill="url(#paint5_linear_3307_1247)"/>
<path d="M169.04 42.78C169.04 47.91 170.23 51.58 175.36 51.58C180.49 51.58 187.61 47.91 187.61 42.78C187.61 37.65 187.07 34.23 181.94 34.23C176.81 34.23 169.04 37.66 169.04 42.78Z" fill="url(#paint6_linear_3307_1247)"/>
<path d="M76.25 239.89C76.25 243.57 79.23 245.94 82.91 245.94C86.59 245.94 89.57 243.56 89.57 239.89C89.57 236.22 89.18 233.76 85.5 233.76C81.82 233.76 76.25 236.21 76.25 239.89Z" fill="url(#paint7_linear_3307_1247)"/>
<path d="M47.42 173.36C46.18 176.82 48.18 180.06 51.64 181.31C55.1 182.55 58.71 181.33 59.95 177.87C61.19 174.41 61.66 171.97 58.2 170.72C54.74 169.47 48.66 169.9 47.42 173.36Z" fill="url(#paint8_linear_3307_1247)"/>
<path d="M195.94 86.1898C195.94 90.1098 199.12 95.5198 203.04 95.5198C206.96 95.5198 210.14 92.3398 210.14 88.4198C210.14 84.4998 206.96 81.3198 203.04 81.3198C199.12 81.3198 195.94 82.2598 195.94 86.1898Z" fill="url(#paint9_linear_3307_1247)"/>
<path d="M249.67 240.91C249.67 244.83 254.01 250.64 257.93 250.64C261.85 250.64 265.03 247.46 265.03 243.54C265.03 239.62 261.85 236.44 257.93 236.44C254.01 236.44 249.67 236.98 249.67 240.91Z" fill="url(#paint10_linear_3307_1247)"/>
<path d="M125.641 73.6802C125.641 76.2102 127.781 78.2602 130.311 78.2602C132.841 78.2602 134.891 76.2102 134.891 73.6802C134.891 71.1502 134.011 68.4302 131.481 68.4302C128.951 68.4302 125.641 71.1502 125.641 73.6802Z" fill="url(#paint11_linear_3307_1247)"/>
<path d="M100.7 272.3C100.7 277.92 105.25 278.19 110.87 278.19C116.49 278.19 121.04 273.64 121.04 268.02C121.04 262.4 116.49 257.85 110.87 257.85C105.25 257.86 100.7 266.68 100.7 272.3Z" fill="url(#paint12_linear_3307_1247)"/>
<path d="M296.71 102.74C295.61 108.82 282.62 103.22 265.89 100.2C249.16 97.1702 235.03 97.8702 236.13 91.7802C237.23 85.7002 251.68 83.2202 268.41 86.2402C285.14 89.2702 297.81 96.6502 296.71 102.74Z" fill="url(#paint13_linear_3307_1247)"/>
<path d="M118.56 87.4398C119.94 93.4698 105.79 93.4298 89.2201 97.2198C72.6501 101.01 59.9301 107.21 58.5501 101.18C57.1701 95.1498 69.4901 87.1898 86.0601 83.3998C102.63 79.5998 117.18 81.4098 118.56 87.4398Z" fill="url(#paint14_linear_3307_1247)"/>
<path d="M251.441 198.45C277.63 198.45 298.861 177.219 298.861 151.03C298.861 124.841 277.63 103.61 251.441 103.61C225.251 103.61 204.021 124.841 204.021 151.03C204.021 177.219 225.251 198.45 251.441 198.45Z" fill="white"/>
<path d="M250.73 182.36C268.304 182.36 282.55 168.113 282.55 150.54C282.55 132.966 268.304 118.72 250.73 118.72C233.156 118.72 218.91 132.966 218.91 150.54C218.91 168.113 233.156 182.36 250.73 182.36Z" fill="url(#paint15_linear_3307_1247)"/>
<path d="M279.68 130.891C281.073 125.358 277.719 119.744 272.186 118.35C266.654 116.956 261.039 120.311 259.646 125.843C258.252 131.376 261.607 136.99 267.139 138.384C272.671 139.778 278.286 136.423 279.68 130.891Z" fill="white"/>
<path d="M240.761 156.87C244.423 156.87 247.391 153.902 247.391 150.24C247.391 146.578 244.423 143.61 240.761 143.61C237.099 143.61 234.131 146.578 234.131 150.24C234.131 153.902 237.099 156.87 240.761 156.87Z" fill="white"/>
<path d="M117.01 198.7C143.199 198.7 164.43 177.469 164.43 151.28C164.43 125.091 143.199 103.86 117.01 103.86C90.82 103.86 69.59 125.091 69.59 151.28C69.59 177.469 90.82 198.7 117.01 198.7Z" fill="white"/>
<path d="M117.719 182.61C135.293 182.61 149.539 168.363 149.539 150.79C149.539 133.216 135.293 118.97 117.719 118.97C100.146 118.97 85.8989 133.216 85.8989 150.79C85.8989 168.363 100.146 182.61 117.719 182.61Z" fill="url(#paint16_linear_3307_1247)"/>
<path d="M101.319 138.609C106.851 137.215 110.206 131.6 108.812 126.068C107.419 120.536 101.804 117.181 96.2719 118.575C90.7399 119.968 87.3849 125.583 88.7789 131.115C90.1719 136.647 95.7869 140.002 101.319 138.609Z" fill="white"/>
<path d="M127.68 161.11C131.341 161.11 134.31 158.142 134.31 154.48C134.31 150.818 131.341 147.85 127.68 147.85C124.018 147.85 121.05 150.818 121.05 154.48C121.05 158.142 124.018 161.11 127.68 161.11Z" fill="white"/>
<path d="M231.65 225.3C231.65 237.43 225.77 248.42 216.32 256.42H216.27C206.78 264.37 193.67 269.27 179.17 269.27C178.34 269.27 177.47 269.27 176.64 269.22C160.28 268.55 145.83 261.58 136.8 251.16C130.45 243.94 126.74 235.01 126.74 225.31C126.74 201.06 150.22 216.38 179.17 216.38C180.56 216.38 182.01 216.33 183.35 216.28C210.39 214.98 231.65 202.24 231.65 225.3Z" fill="url(#paint17_linear_3307_1247)"/>
<path d="M231.65 225.3C231.65 249.6 208.17 269.26 179.17 269.26C178.34 269.26 177.47 269.26 176.64 269.21C172.25 262.76 169.73 254.97 169.73 246.56C169.73 234.54 174.99 223.7 183.35 216.27C210.39 214.98 231.65 202.24 231.65 225.3Z" fill="url(#paint18_linear_3307_1247)"/>
<path d="M216.27 256.42C206.78 264.37 193.67 269.27 179.17 269.27C178.34 269.27 177.47 269.27 176.64 269.22C160.28 268.55 145.83 261.58 136.8 251.16C140.57 248.53 144.85 246.31 149.55 244.61C156.72 241.93 164.82 240.43 173.39 240.43C183.81 240.43 193.57 242.65 201.77 246.47C207.39 249.09 212.35 252.49 216.27 256.42Z" fill="url(#paint19_radial_3307_1247)"/>
<path opacity="0.42" d="M152.96 253.94C161.16 260.54 181.5 257.96 191.35 255.9C197.54 254.56 200.95 250.69 201.77 246.46C193.57 242.64 183.81 240.42 173.39 240.42C164.82 240.42 156.72 241.92 149.55 244.6C148.93 247.59 149.4 251.05 152.96 253.94Z" fill="url(#paint20_radial_3307_1247)"/>
</g>
<defs>
<radialGradient id="paint0_radial_3307_1247" cx="0" cy="0" r="1" gradientUnits="userSpaceOnUse" gradientTransform="translate(178.626 174.152) scale(203.496 203.496)">
<stop stop-color="white"/>
<stop offset="1" stop-color="white" stop-opacity="0"/>
</radialGradient>
<linearGradient id="paint1_linear_3307_1247" x1="196.081" y1="388.176" x2="168.874" y2="27.379" gradientUnits="userSpaceOnUse">
<stop stop-color="#8F420B"/>
<stop offset="1" stop-color="#FFAA6E"/>
</linearGradient>
<linearGradient id="paint2_linear_3307_1247" x1="216.125" y1="59.016" x2="183.974" y2="146.014" gradientUnits="userSpaceOnUse">
<stop stop-color="#FFF2E9"/>
<stop offset="1" stop-color="#FFAA6E"/>
</linearGradient>
<linearGradient id="paint3_linear_3307_1247" x1="179.739" y1="278.913" x2="174.482" y2="138.835" gradientUnits="userSpaceOnUse">
<stop stop-color="#8F420B"/>
<stop offset="1" stop-color="#FFAA6E"/>
</linearGradient>
<linearGradient id="paint4_linear_3307_1247" x1="88.8311" y1="216.494" x2="95.9151" y2="150.37" gradientUnits="userSpaceOnUse">
<stop stop-color="#4E2202"/>
<stop offset="1" stop-color="#8F420B"/>
</linearGradient>
<linearGradient id="paint5_linear_3307_1247" x1="302.585" y1="239.568" x2="307.357" y2="195.033" gradientUnits="userSpaceOnUse">
<stop stop-color="#4E2202"/>
<stop offset="1" stop-color="#8F420B"/>
</linearGradient>
<linearGradient id="paint6_linear_3307_1247" x1="176.021" y1="64.318" x2="179.634" y2="30.593" gradientUnits="userSpaceOnUse">
<stop stop-color="#4E2202"/>
<stop offset="1" stop-color="#8F420B"/>
</linearGradient>
<linearGradient id="paint7_linear_3307_1247" x1="81.351" y1="254.535" x2="83.847" y2="231.234" gradientUnits="userSpaceOnUse">
<stop stop-color="#4E2202"/>
<stop offset="1" stop-color="#8F420B"/>
</linearGradient>
<linearGradient id="paint8_linear_3307_1247" x1="47.199" y1="188.989" x2="57.429" y2="167.905" gradientUnits="userSpaceOnUse">
<stop stop-color="#4E2202"/>
<stop offset="1" stop-color="#8F420B"/>
</linearGradient>
<linearGradient id="paint9_linear_3307_1247" x1="201.119" y1="105.234" x2="203.957" y2="78.7448" gradientUnits="userSpaceOnUse">
<stop stop-color="#4E2202"/>
<stop offset="1" stop-color="#8F420B"/>
</linearGradient>
<linearGradient id="paint10_linear_3307_1247" x1="255.419" y1="260.296" x2="258.257" y2="233.81" gradientUnits="userSpaceOnUse">
<stop stop-color="#4E2202"/>
<stop offset="1" stop-color="#8F420B"/>
</linearGradient>
<linearGradient id="paint11_linear_3307_1247" x1="129.048" y1="85.0892" x2="131.036" y2="66.5292" gradientUnits="userSpaceOnUse">
<stop stop-color="#4E2202"/>
<stop offset="1" stop-color="#8F420B"/>
</linearGradient>
<linearGradient id="paint12_linear_3307_1247" x1="108.463" y1="292.581" x2="112.576" y2="254.186" gradientUnits="userSpaceOnUse">
<stop stop-color="#4E2202"/>
<stop offset="1" stop-color="#8F420B"/>
</linearGradient>
<linearGradient id="paint13_linear_3307_1247" x1="236.071" y1="95.2052" x2="296.781" y2="95.2052" gradientUnits="userSpaceOnUse">
<stop stop-color="#4E2202"/>
<stop offset="1" stop-color="#8F420B"/>
</linearGradient>
<linearGradient id="paint14_linear_3307_1247" x1="58.4461" y1="92.5568" x2="118.658" y2="92.5568" gradientUnits="userSpaceOnUse">
<stop stop-color="#4E2202"/>
<stop offset="1" stop-color="#8F420B"/>
</linearGradient>
<linearGradient id="paint15_linear_3307_1247" x1="215.488" y1="98.6352" x2="326.127" y2="261.602" gradientUnits="userSpaceOnUse">
<stop stop-color="#4E2202"/>
<stop offset="1" stop-color="#8F420B"/>
</linearGradient>
<linearGradient id="paint16_linear_3307_1247" x1="152.957" y1="98.8842" x2="42.319" y2="261.851" gradientUnits="userSpaceOnUse">
<stop stop-color="#4E2202"/>
<stop offset="1" stop-color="#8F420B"/>
</linearGradient>
<linearGradient id="paint17_linear_3307_1247" x1="126.743" y1="240.431" x2="231.647" y2="240.431" gradientUnits="userSpaceOnUse">
<stop stop-color="#8F420B"/>
<stop offset="1" stop-color="#4E2202"/>
</linearGradient>
<linearGradient id="paint18_linear_3307_1247" x1="169.727" y1="240.433" x2="231.647" y2="240.433" gradientUnits="userSpaceOnUse">
<stop stop-color="#8F420B"/>
<stop offset="1" stop-color="#4E2202"/>
</linearGradient>
<radialGradient id="paint19_radial_3307_1247" cx="0" cy="0" r="1" gradientUnits="userSpaceOnUse" gradientTransform="translate(133.268 209.678) scale(88.5425 88.5425)">
<stop stop-color="#8F420B"/>
<stop offset="1" stop-color="#FFAA6E"/>
</radialGradient>
<radialGradient id="paint20_radial_3307_1247" cx="0" cy="0" r="1" gradientUnits="userSpaceOnUse" gradientTransform="translate(173.421 238.353) scale(30.7374 30.7374)">
<stop stop-color="white"/>
<stop offset="1" stop-color="white" stop-opacity="0"/>
</radialGradient>
<clipPath id="clip0_3307_1247">
<rect width="360" height="320" fill="white"/>
</clipPath>
</defs>
</svg>
